<?xml version="1.0" encoding="UTF-8" ?>
<!DOCTYPE svg PUBLIC "-//W3C//DTD SVG 1.1//EN" "http://www.w3.org/Graphics/SVG/1.1/DTD/svg11.dtd">
<svg width="500pt" height="500pt" viewBox="0 0 500 500" version="1.1" xmlns="http://www.w3.org/2000/svg">
<path fill="#ffffff" d=" M 0.00 0.00 L 500.00 0.00 L 500.00 500.00 L 0.00 500.00 L 0.00 0.00 Z" />
<path fill="#fee820" d=" M 222.98 134.16 C 230.80 131.77 238.89 130.77 246.98 129.83 C 244.63 134.53 242.83 139.48 241.30 144.50 C 240.94 145.51 240.59 146.52 240.24 147.53 C 238.37 154.89 237.20 162.38 236.24 169.90 C 235.32 182.48 236.37 195.18 239.25 207.47 C 242.14 219.48 246.72 231.13 253.27 241.62 C 256.95 248.13 261.90 253.79 266.00 260.02 C 268.25 262.11 270.65 264.07 272.48 266.59 C 276.80 270.84 282.40 273.67 286.33 278.35 C 294.70 282.85 302.80 287.87 311.72 291.24 C 315.87 293.08 320.28 294.15 324.51 295.76 C 337.52 298.74 350.84 300.69 364.20 299.79 C 350.16 330.37 322.85 354.69 290.51 364.28 C 278.74 368.15 266.34 369.44 254.03 369.90 C 245.14 369.02 236.11 368.79 227.45 366.32 C 226.11 365.99 224.77 365.67 223.45 365.32 C 219.37 364.32 215.29 363.09 211.49 361.27 C 200.17 357.28 189.97 350.72 180.41 343.57 C 175.54 339.14 170.01 335.36 166.14 329.93 C 152.31 314.47 141.96 295.54 138.27 275.01 C 137.62 267.97 135.66 261.11 135.07 254.05 C 134.43 224.88 144.01 195.26 163.06 172.97 C 178.52 154.43 199.63 140.47 222.98 134.16 Z" />
<path fill="#ffffff" d=" M 171.23 189.49 C 173.10 189.79 173.07 191.86 173.82 193.21 C 175.75 197.47 179.27 200.68 183.36 202.82 C 185.56 203.59 187.72 204.47 189.73 205.65 C 181.30 206.78 174.97 214.49 173.72 222.63 C 171.23 214.43 163.94 208.30 155.61 206.70 C 158.99 204.83 162.82 203.59 165.61 200.80 C 168.56 197.72 171.23 193.95 171.23 189.49 Z" />
<path fill="#ffffff" d=" M 152.18 233.16 C 153.57 231.09 154.46 228.74 155.65 226.56 C 156.93 231.94 161.86 236.55 167.39 237.28 C 164.81 238.71 161.71 239.48 159.79 241.86 C 158.11 243.70 157.37 246.13 156.61 248.45 C 153.83 243.94 150.10 238.97 144.30 238.70 C 146.88 236.78 150.26 235.88 152.18 233.16 Z" />
<path fill="#ffffff" d=" M 174.57 247.73 C 177.40 245.72 181.20 243.84 181.39 239.88 C 182.98 242.69 185.11 245.41 188.31 246.45 C 186.50 248.02 184.77 249.69 183.06 251.37 C 182.97 252.28 182.90 253.19 182.82 254.11 C 180.91 251.16 178.44 247.84 174.57 247.73 Z" />
</svg>
